<?xml version="1.0" encoding="UTF-8"?>
<svg id="Capa_1" data-name="Capa 1" xmlns="http://www.w3.org/2000/svg" viewBox="0 0 205.78 205.78">
  <defs>
    <style>
      .cls-1 {
        fill: #fff;
      }

      .cls-2 {
        fill: #c7363b;
      }
    </style>
  </defs>
  <circle class="cls-2" cx="102.89" cy="102.89" r="102.89"/>
  <path class="cls-1" d="m73.76,111.73c3.42,0,6.66.35,9.73,1.05,3.07.7,5.86,1.85,8.37,3.45,2.51,1.6,4.74,3.71,6.69,6.33,1.45,1.95,2.72,4.24,3.78,6.86.94,2.31,4.45,1.71,4.48-.79,0-.02,0-.04,0-.06,0-1.6-.58-3.62-1.73-6.07-1.15-2.44-3-4.81-5.54-7.11-2.55-2.3-5.89-4.27-10.04-5.91-4.15-1.64-9.19-2.46-15.11-2.46-3.35,0-6.22.28-8.63.84-.28.06-.55.13-.82.2-4.2,1.03-8.69-.15-11.72-3.22-.02-.02-.04-.04-.06-.06-1.95-1.99-3.61-4.24-4.97-6.75-1.36-2.51-2.41-5.23-3.14-8.16s-1.1-5.93-1.1-9c0-8.58,1.85-15.93,5.54-22.07,3.7-6.14,8.52-11.14,14.49-15.01,5.96-3.87,12.67-6.71,20.13-8.52,7.46-1.81,14.96-2.72,22.49-2.72,6.76,0,12.9.42,18.41,1.25,5.51.84,10.42,1.94,14.75,3.29,4.32,1.36,8.11,2.89,11.35,4.6.84.44,1.64.88,2.41,1.33,4.07,2.35,6.83,6.45,7.57,11.09v.08c.43,2.65.64,5.4.64,8.26,0,1.88-.16,3.85-.47,5.91-.31,2.06-.78,4.06-1.41,6.01-.63,1.95-1.43,3.8-2.41,5.54l-.03.05c-1.44,2.56-4.6,3.59-7.27,2.36-.34-.16-.69-.31-1.06-.48-2.16-.94-4.62-1.81-7.37-2.62-2.76-.8-5.74-1.48-8.94-2.04-3.21-.56-6.42-.84-9.62-.84-4.39,0-7.44.31-9.15.94-1.71.63-2.56,1.6-2.56,2.93v.02c0,.93.85,1.61,1.77,1.44.99-.18,2.04-.32,3.15-.42,1.67-.14,3.28-.21,4.81-.21,6,0,11.89.75,17.68,2.25,5.79,1.5,10.96,3.97,15.53,7.43,4.57,3.45,8.24,8,11.03,13.65,2.79,5.65,4.18,12.59,4.18,20.81,0,6.48-1.4,12.62-4.18,18.41-2.79,5.79-6.89,10.88-12.29,15.27-5.4,4.39-12.1,7.88-20.08,10.46-7.99,2.58-17.21,3.87-27.67,3.87-5.37,0-10.39-.19-15.06-.58-4.67-.38-9.14-1.01-13.39-1.88-4.25-.87-8.33-2.02-12.24-3.45-.87-.32-4.57-2.11-5.32-2.68-6.53-4.88-8.41-6.59-11.94-13.17h0c-1.46-3.77-2.2-8.05-2.2-12.87,0-3.77.71-7.29,2.14-10.56,1.43-3.28,3.4-6.12,5.91-8.52,2.51-2.41,5.51-4.3,9-5.7,3.49-1.39,7.32-2.09,11.5-2.09Z"/>
  <circle class="cls-2" cx="75.05" cy="141.08" r="18.99"/>
  <path class="cls-2" d="m154.79,50.26c1.62,5.23,3.96,15.58.19,23.1-.63,1.26-2.11,1.83-3.44,1.34-1.82-.66-4.62-1.47-7.56-1.51-1.4-.02-2.43-1.33-2.16-2.71.65-3.32,1.59-8.99,1.71-14.39.11-4.7-1.08-9.34-3.3-13.49l-.19-.35c-.58-1.08.46-2.31,1.62-1.92,2.4.82,5.75,2.13,8.57,3.91,2.2,1.38,3.78,3.53,4.55,6.01Z"/>
</svg>